<svg width="24" height="24" viewBox="0 0 24 24" fill="none" xmlns="http://www.w3.org/2000/svg">
  <path d="M17 22v-2h3v-3h2v3.5c0 .4-.15.75-.45 1.05-.3.3-.65.45-1.05.45H17zM7 22H3.5c-.4 0-.75-.15-1.05-.45C2.15 21.25 2 20.9 2 20.5V17h2v3h3v2zm10-20h3.5c.4 0 .75.15 1.05.45.3.3.45.65.45 1.05V7h-2V4h-3V2zM7 2L7 4H4v3H2V3.5c0-.4.15-.75.45-1.05.3-.3.65-.45 1.05-.45H7zm6 15.25l4-2.3v-4.6l-4 2.3v4.6zm-1-6.33l4-2.29-4-2.35-4 2.35 4 2.29zm-5 4.03l4 2.3v-4.59l-4-2.3v4.59zm11.23-7.36c.5.32.77.75.77 1.32v6.32c0 .57-.27 1-.77 1.32l-5.48 3.18c-.5.32-1 .32-1.5 0l-5.48-3.18c-.5-.32-.77-.75-.77-1.32V8.91c0-.57.27-1 .77-1.32l5.48-3.18c.25-.13.5-.19.75-.19s.5.06.75.19l5.48 3.18z" fill="#E7E7E7"/>
</svg>

