<svg width="24" xmlns="http://www.w3.org/2000/svg" height="24" id="screenshot-d236e937-4af4-8052-8007-d08da8bbacc7" viewBox="0 0 24 24" xmlns:xlink="http://www.w3.org/1999/xlink" fill="none" version="1.1"><g id="shape-d236e937-4af4-8052-8007-d08da8bbacc7"><g class="frame-container-wrapper"><g class="frame-container-blur"><g class="frame-container-shadows"><g fill="none"><g class="fills" id="fills-d236e937-4af4-8052-8007-d08da8bbacc7"><rect rx="0" ry="0" x="0" y="0" width="24" height="24" transform="matrix(1.000000, 0.000000, 0.000000, 1.000000, 0.000000, 0.000000)" class="frame-background"/></g><g class="frame-children"><g id="shape-d236e937-4af4-8052-8007-d08d3a7d102d"><g class="frame-container-wrapper"><g class="frame-container-blur"><g class="frame-container-shadows"><g fill="none"><g class="fills" id="fills-d236e937-4af4-8052-8007-d08d3a7d102d"><rect rx="0" ry="0" x="0" y="0" width="24" height="24" transform="matrix(1.000000, 0.000000, 0.000000, 1.000000, 0.000000, 0.000000)" class="frame-background"/></g><g class="frame-children"><g id="shape-d236e937-4af4-8052-8007-d08d3a7d102e" rx="0" ry="0" style="fill: rgb(0, 0, 0);"><g id="shape-d236e937-4af4-8052-8007-d08d3a7d102f" style="display: none;"><g class="fills" id="fills-d236e937-4af4-8052-8007-d08d3a7d102f"><rect width="24" height="24" x="0" transform="matrix(1.000000, 0.000000, 0.000000, 1.000000, 0.000000, 0.000000)" style="fill: none;" ry="0" fill="none" rx="0" y="0"/></g></g><g id="shape-d236e937-4af4-8052-8007-d08d3a7d1030"><g class="fills" id="fills-d236e937-4af4-8052-8007-d08d3a7d1030"><path d="M2,4C2,2.890625,2.89990234375,2,4,2L7,2L7,4L4,4L4,7L2,7L2,4M22,4L22,7L20,7L20,4L17,4L17,2L20,2C21.1044921875,2,22,2.89453125,22,4M20,20L20,17L22,17L22,20C22,21.109375,21.10009765625,22,20,22L17,22L17,20L20,20M2,20L2,17L4,17L4,20L7,20L7,22L4,22C2.8955078125,22,2,21.10546875,2,20M10,2L14,2L14,4L10,4L10,2M10,20L14,20L14,22L10,22L10,20M20,10L22,10L22,14L20,14L20,10M2,10L4,10L4,14L2,14L2,10Z" style="fill: rgb(231, 231, 231); fill-opacity: 1;"/></g><g id="strokes-7e3459a8-9785-8086-8007-d09c598d46b7-d236e937-4af4-8052-8007-d08d3a7d1030" class="strokes"><g class="inner-stroke-shape"><defs><clipPath id="inner-stroke-render-15-d236e937-4af4-8052-8007-d08d3a7d1030-0"><use href="#stroke-shape-render-15-d236e937-4af4-8052-8007-d08d3a7d1030-0"/></clipPath><path d="M2,4C2,2.890625,2.89990234375,2,4,2L7,2L7,4L4,4L4,7L2,7L2,4M22,4L22,7L20,7L20,4L17,4L17,2L20,2C21.1044921875,2,22,2.89453125,22,4M20,20L20,17L22,17L22,20C22,21.109375,21.10009765625,22,20,22L17,22L17,20L20,20M2,20L2,17L4,17L4,20L7,20L7,22L4,22C2.8955078125,22,2,21.10546875,2,20M10,2L14,2L14,4L10,4L10,2M10,20L14,20L14,22L10,22L10,20M20,10L22,10L22,14L20,14L20,10M2,10L4,10L4,14L2,14L2,10Z" id="stroke-shape-render-15-d236e937-4af4-8052-8007-d08d3a7d1030-0" style="fill: none; stroke-width: 2; stroke: rgb(231, 231, 231); stroke-opacity: 1;"/></defs><use href="#stroke-shape-render-15-d236e937-4af4-8052-8007-d08d3a7d1030-0" clip-path="url('#inner-stroke-render-15-d236e937-4af4-8052-8007-d08d3a7d1030-0')"/></g></g></g></g></g></g></g></g></g></g></g></g></g></g></g></g></svg>